<mxfile host="Electron" modified="2023-04-25T14:27:19.964Z" agent="Mozilla/5.0 (X11; Linux x86_64) AppleWebKit/537.36 (KHTML, like Gecko) draw.io/21.2.1 Chrome/112.0.5615.87 Electron/24.1.2 Safari/537.36" etag="-7FPsDEGwsWwYtBEL7WE" version="21.2.1" type="device">
  <diagram name="Page-1" id="wpqvAyM3P-CxVeywfdBl">
    <mxGraphModel dx="1346" dy="916" grid="1" gridSize="10" guides="1" tooltips="1" connect="1" arrows="1" fold="1" page="0" pageScale="1" pageWidth="827" pageHeight="1169" math="0" shadow="0">
      <root>
        <mxCell id="0" />
        <mxCell id="1" parent="0" />
        <mxCell id="dXAkt5ihNcGtexKwCEFu-1" value="Source" style="shape=note;whiteSpace=wrap;html=1;backgroundOutline=1;darkOpacity=0.05;fillColor=#ffe6cc;strokeColor=#d79b00;" vertex="1" parent="1">
          <mxGeometry x="20" y="290" width="80" height="100" as="geometry" />
        </mxCell>
        <mxCell id="dXAkt5ihNcGtexKwCEFu-3" value="Characters" style="text;html=1;strokeColor=none;fillColor=none;align=center;verticalAlign=middle;whiteSpace=wrap;rounded=0;" vertex="1" parent="1">
          <mxGeometry x="140" y="300" width="60" height="20" as="geometry" />
        </mxCell>
        <mxCell id="dXAkt5ihNcGtexKwCEFu-5" value="Lexer" style="ellipse;whiteSpace=wrap;html=1;fillColor=#dae8fc;strokeColor=#6c8ebf;" vertex="1" parent="1">
          <mxGeometry x="260" y="300" width="120" height="80" as="geometry" />
        </mxCell>
        <mxCell id="dXAkt5ihNcGtexKwCEFu-8" value="" style="shape=flexArrow;endArrow=classic;html=1;rounded=0;" edge="1" parent="1">
          <mxGeometry width="50" height="50" relative="1" as="geometry">
            <mxPoint x="319.5" y="400" as="sourcePoint" />
            <mxPoint x="319.5" y="480" as="targetPoint" />
          </mxGeometry>
        </mxCell>
        <mxCell id="dXAkt5ihNcGtexKwCEFu-9" value="Tokens" style="text;html=1;strokeColor=none;fillColor=none;align=center;verticalAlign=middle;whiteSpace=wrap;rounded=0;" vertex="1" parent="1">
          <mxGeometry x="340" y="430" width="60" height="20" as="geometry" />
        </mxCell>
        <mxCell id="dXAkt5ihNcGtexKwCEFu-10" value="Parser" style="ellipse;whiteSpace=wrap;html=1;fillColor=#dae8fc;strokeColor=#6c8ebf;" vertex="1" parent="1">
          <mxGeometry x="260" y="500" width="120" height="80" as="geometry" />
        </mxCell>
        <mxCell id="dXAkt5ihNcGtexKwCEFu-11" value="" style="shape=flexArrow;endArrow=classic;html=1;rounded=0;" edge="1" parent="1">
          <mxGeometry width="50" height="50" relative="1" as="geometry">
            <mxPoint x="319.5" y="600" as="sourcePoint" />
            <mxPoint x="319.5" y="680" as="targetPoint" />
          </mxGeometry>
        </mxCell>
        <mxCell id="dXAkt5ihNcGtexKwCEFu-12" value="Syntax Tree" style="text;html=1;strokeColor=none;fillColor=none;align=center;verticalAlign=middle;whiteSpace=wrap;rounded=0;" vertex="1" parent="1">
          <mxGeometry x="340" y="630" width="60" height="20" as="geometry" />
        </mxCell>
        <mxCell id="dXAkt5ihNcGtexKwCEFu-13" value="Type Checker" style="ellipse;whiteSpace=wrap;html=1;fillColor=#dae8fc;strokeColor=#6c8ebf;" vertex="1" parent="1">
          <mxGeometry x="260" y="700" width="120" height="80" as="geometry" />
        </mxCell>
        <mxCell id="dXAkt5ihNcGtexKwCEFu-14" value="" style="shape=flexArrow;endArrow=classic;html=1;rounded=0;" edge="1" parent="1">
          <mxGeometry width="50" height="50" relative="1" as="geometry">
            <mxPoint x="400" y="739.5" as="sourcePoint" />
            <mxPoint x="520" y="739.5" as="targetPoint" />
          </mxGeometry>
        </mxCell>
        <mxCell id="dXAkt5ihNcGtexKwCEFu-15" value="ANF" style="text;html=1;strokeColor=none;fillColor=none;align=center;verticalAlign=middle;whiteSpace=wrap;rounded=0;" vertex="1" parent="1">
          <mxGeometry x="620" y="630" width="60" height="30" as="geometry" />
        </mxCell>
        <mxCell id="dXAkt5ihNcGtexKwCEFu-16" value="Syntax Tree" style="text;html=1;strokeColor=none;fillColor=none;align=center;verticalAlign=middle;whiteSpace=wrap;rounded=0;" vertex="1" parent="1">
          <mxGeometry x="420" y="700" width="80" height="20" as="geometry" />
        </mxCell>
        <mxCell id="dXAkt5ihNcGtexKwCEFu-17" value="ANF-Conversion" style="ellipse;whiteSpace=wrap;html=1;fillColor=#dae8fc;strokeColor=#6c8ebf;" vertex="1" parent="1">
          <mxGeometry x="540" y="700" width="120" height="80" as="geometry" />
        </mxCell>
        <mxCell id="dXAkt5ihNcGtexKwCEFu-18" value="" style="shape=flexArrow;endArrow=classic;html=1;rounded=0;" edge="1" parent="1">
          <mxGeometry width="50" height="50" relative="1" as="geometry">
            <mxPoint x="600" y="680" as="sourcePoint" />
            <mxPoint x="600" y="600" as="targetPoint" />
          </mxGeometry>
        </mxCell>
        <mxCell id="dXAkt5ihNcGtexKwCEFu-19" value="CEKF&lt;br&gt;Machine" style="ellipse;whiteSpace=wrap;html=1;fillColor=#dae8fc;strokeColor=#6c8ebf;" vertex="1" parent="1">
          <mxGeometry x="540" y="500" width="120" height="80" as="geometry" />
        </mxCell>
        <mxCell id="dXAkt5ihNcGtexKwCEFu-20" value="" style="shape=flexArrow;endArrow=classic;html=1;rounded=0;" edge="1" parent="1">
          <mxGeometry width="50" height="50" relative="1" as="geometry">
            <mxPoint x="599.5" y="480" as="sourcePoint" />
            <mxPoint x="599.5" y="400" as="targetPoint" />
          </mxGeometry>
        </mxCell>
        <mxCell id="dXAkt5ihNcGtexKwCEFu-21" value="Output" style="shape=note;whiteSpace=wrap;html=1;backgroundOutline=1;darkOpacity=0.05;fillColor=#ffe6cc;strokeColor=#d79b00;" vertex="1" parent="1">
          <mxGeometry x="560" y="290" width="80" height="100" as="geometry" />
        </mxCell>
        <mxCell id="dXAkt5ihNcGtexKwCEFu-22" value="" style="shape=flexArrow;endArrow=classic;html=1;rounded=0;" edge="1" parent="1">
          <mxGeometry width="50" height="50" relative="1" as="geometry">
            <mxPoint x="120" y="339.5" as="sourcePoint" />
            <mxPoint x="240" y="339.5" as="targetPoint" />
          </mxGeometry>
        </mxCell>
      </root>
    </mxGraphModel>
  </diagram>
</mxfile>
